<?xml version="1.0" encoding="UTF-8"?>
<svg id="Lag_1" data-name="Lag 1" xmlns="http://www.w3.org/2000/svg" width="264.140185333426416" height="200.68234717062478" viewBox="0 0 264.140185333426416 200.68234717062478">
  <defs>
    <style>
      .cls-1, .cls-2 {
        fill: #f9ead7;
      }

      .cls-3 {
        opacity: .8;
      }

      .cls-2 {
        stroke: #f9ead7;
        stroke-miterlimit: 10;
      }
    </style>
  </defs>
  <g class="cls-3">
    <path class="cls-1" d="M132.070793471109937,200.68234717062478C59.247405344667641,200.68234717062478,0,155.66968074106353,0,100.34117358531239S59.247405344667641,0,132.070793471109937,0c72.823388126444115,0,132.069391862316479,45.01266642956125,132.069391862316479,100.34117358531239s-59.246003735872364,100.34117358531239-132.069391862316479,100.34117358531239ZM132.070793471109937,4.305742216148246C61.620329033448797,4.305742216148246,4.305742216149156,47.386991727138593,4.305742216149156,100.34117358531239s57.314586817299642,96.035431369164144,127.765051254960781,96.035431369164144c70.449062828867682,0,127.763649646169142-43.081249510990347,127.763649646169142-96.035431369164144S202.519856299977619,4.305742216148246,132.070793471109937,4.305742216148246Z"/>
  </g>
  <g>
    <path class="cls-2" d="M28.807966354039308,114.403032815694132c7.690014250581953-13.72537456912687,4.937254578539068-32.051880407804674,7.199013169822138-36.615222990252732.743115462639253.379255629618456,1.127506674480173.580824494351873,1.922481662508289.999237569662-2.358031595342254,3.842455759282529.235645478545848,21.652173105399015-7.732675718258179,35.267379033278303-.585872476025543.156366981116662-.863741419500002.226994924267274-1.388819114072248.348606387312429Z"/>
    <path class="cls-2" d="M37.482260380433218,111.92903999275859c8.952776173713573-11.916029016484572,6.921669829645907-27.345409477305111,9.510879275501793-28.527644595175843.99084981703345.461851997865779,1.497356195081011.690478482370054,2.533057493532397,1.134602319001715-2.642733381688231.661920703185388-.746969886822626,15.490700845571155-9.926456283017615,26.788445182662144-.87346508050905.243978480830265-1.296838536944051.365765144973921-2.117480486016575.604597093511984Z"/>
    <path class="cls-2" d="M49.683527736629912,108.925950800036844c9.940822773160107-8.39057774623052,9.111858771870175-20.769061014359977,10.440671509433741-20.82422746049906.836059645811474.196575633403882,1.2498846423332.28451563517865,2.071577798004.441397269523804-1.205558764213492.078730993993304.35285501396902,12.205329831687777-9.768862894206904,19.902034574248319-1.119885426660403.179646827185024-1.66835246798837.276686336053899-2.743386413230837.480795616726937Z"/>
    <path class="cls-2" d="M62.649810692877509,107.433544036010062c8.846691908092907-5.591444533218237,6.873139125142188-17.375744223174479,7.62256182735473-18.054517082098755.776403671503431.012614479148397,1.162021291040219.010709167194364,1.930453312526879-.00817970132357-.674524232266776.935617670483225,1.245767416499802,12.618333573057498-7.590062023438804,17.996010865005701-.776316070952817.018023813088803-1.168328530613508.031218645879562-1.962953116442804.066685918416624Z"/>
    <path class="cls-2" d="M72.315655340700687,107.521735889365118c8.860357593839581-5.066268288028368,7.174923018670597-16.585740566339155,7.554496200282301-18.927018556562871.748984699463108-.129922565191919,1.122425842599114-.20096661095431,1.869658531071764-.354190922351336-.334371297994949,2.768571571253233,1.275288801731222,14.296103100132314-7.633336694962054,19.412719804068729-.712367669711966-.059283671971571-1.069953113363226-.085684287621007-1.790818036392011-.131510325154522Z"/>
    <path class="cls-2" d="M81.358572479999566,108.521499062326257c9.143745371940895-5.776259792833116,7.842176405316422-17.520920234074765,7.964904775368268-22.24945555301565.753539928045939-.231013599483049,1.130923095915932-.350522649336199,1.889193453642292-.596636393563131-.088651756239415,5.263468075348101,1.12382745139621,17.094874960876041-8.109358081732353,23.12472739486202-.698877185066522-.116147378760616-1.047264571005144-.171959878953203-1.744740147278208-.278635448283239Z"/>
    <path class="cls-2" d="M90.425579770449986,110.170787460697284c9.600582238339484-7.407338226946194,8.73027077761617-19.710090819907236,8.612623239443565-27.236532944165447.79033215889649-.29068052385901,1.187600651535831-.437937047811829,1.98897047968785-.735516114956226.159257799254192,8.106204461945708.936274674606466,20.543478648954988-8.776786669475769,28.34673851009029-.735844617018302-.152589207412348-1.100175302992284-.227597178045471-1.824807049655647-.374689450968617Z"/>
    <path class="cls-2" d="M103.687514581750293,80.751905823502057c5.090029937118743-1.970749565361984,7.738982957833286-3.027814447858873,13.495565477200216-4.947438142435203.308529135849312.751941218015418.470590152694058,1.142442568195293.798041007266875,1.952013997807626-5.095373570648007,1.473134643104459-7.462690824253514,2.272905761225047-12.009684954124168,3.796509270993738,1.45005189827134,3.184926033647571,2.52026781328459,5.218977946196901,3.351859831063848,10.138624814257128,4.371092226183464-.479262607107557,6.661846599399723-.734979561589171,11.62949856866544-1.210212543413036.17590190368719,1.093955663965971.248172357143631,1.654719632449087.349175790885056,2.803852692622968-4.997173354497136.320147158746295-7.295548975531347.492085137561844-11.673474044588147.809867081467928.565987151256195,6.675282333701034-.763263589054986,11.73595513662076-3.816580746930413,17.437820162666867-.686875909765149-.114778620171819-1.026240439090543-.172156980189357-1.698136654867994-.286771349331502,6.363303926209483-11.503156675938953,2.912543074595305-23.365530355767078-.426264274570713-30.494265984636513Z"/>
    <path class="cls-2" d="M123.444416945374542,73.849431464297595c5.993629606706236,11.432933885330385,7.650068399943848,28.564403975820824,2.271832654490936,40.453342522328057-.895102416272493-.09719280983154-1.335995982633904-.146643320105795-2.206132242257809-.247099250411338,5.412399959812319-11.596155609456218,3.889201602587491-28.422830537525442-1.996066124209392-39.632941474766085.764840398949673-.232513758895038,1.15063321958587-.34724857879246,1.930365711976265-.573301797150634Z"/>
    <path class="cls-2" d="M136.140364605416835,102.541951243973926c-.286804199538892,6.53124512994691-.268320483563002,9.604403812316377,2.794282332573857,9.53598778304422,3.40915059053259-.076146777779286,6.742263903974163-4.141403585014814,7.936960200031535-9.707454908905675,1.240861785719972-5.781023072719108.026455365992661-9.518577173802441-4.884957050400772-11.571353703838213-4.729290873681748-1.976651652395049-7.161432534025153-4.623162807787594-8.941650903909249-10.187494970890839-1.619383760737037-5.061636408966478-.862690212903544-9.840782945464525,4.538409276005041-10.920832022175091,5.544676789777441-1.108760156856079,9.455340527027147,3.660892670074645,10.740440590319849,8.760985720335157-.793485778684044.055527798406729-1.188739458682903.086341291744247-1.974253587348358.154275517993483-1.468623214797844-4.431908907774414-4.158660893295746-7.09418816210291-8.060389374481019-6.375228551029977-3.589082119504383.661340349544844-4.684088990064993,3.445165366505535-3.380943213547653,7.792999646759199,1.285625666589112,4.289393763570843,3.119017570108554,5.816523195462651,7.484240559466343,7.447251227377819,6.668679442271241,2.491272031353219,7.707884762709,8.404834735684744,6.364355132804121,14.58915978890127-1.649255548165456,7.591266530994289-6.849311775638853,12.99015410602442-11.03696845086597,13.011572440413147-4.523955185313753.023148445243351-3.443314804893816-5.733729725980083-3.026598990232742-12.309716836658481.566337553455014-.093119384272541.855594568382003-.137138660468736,1.447073479585015-.22015113132602Z"/>
    <path class="cls-2" d="M152.276210648917186,68.33711212754497c.806012657283645-.0518704754586,1.209413188398685-.07463566829756,2.017878661070426-.114099715912744,1.649781151463685,6.720265215943982,2.656837070182519,10.493461790663787,2.888628124543175,18.705246815068676,6.011850521033921.048859206563975,9.154432638995786.209584315025495,15.512305331127209.622577106326389.010774867607324-8.292005227742266-.875917895898965-12.176410700236374-2.570287727132381-19.22758699246333.813195902353982.046669192823174,1.219312050508961.072489454831157,2.031193944618281.128882308665197,5.384542985026201,17.093495252219327,1.173934965790977,31.11072200255694-4.45273593845377,47.280830811037049-.808377872122946-.026718167641775-1.210113992794504-.041062757645705-2.008943405005994-.071241146998545,4.503719458345586-9.117552807596439,6.327037298655341-15.088012068922581,6.897229276293729-24.671950202829066-6.341578989897243-.396293936524671-9.464713785839194-.563764287308004-15.409462285844711-.646294955142366-.279095351168507,9.544090833886003-1.985378857152682,15.652619511521152-6.170407515890474,24.624207903271781-.702906810351124-.034427016010341-1.050505791341493-.051202521267442-1.738432907704919-.083286222575225,5.028096348522013-16.129035100765577,8.527125102989885-29.845080211354798,3.00303444237943-46.547285708447816Z"/>
    <path class="cls-2" d="M181.915856621286366,69.400024346730788c5.7346823819571,16.767555507128236,1.427976559762101,30.653271932311327-4.18914588457119,46.514490252674477-.84595850792175-.000722704534383-1.267229551163837-.002868918000786-2.106618017862274-.010227364170532,5.634204551513903-15.94539149850425,9.934865935783819-29.876320757372923,4.29260213370253-46.741747978591775.802946638044887.090863670119688,1.203543951571191.138386968302257,2.003161768730934.23748509008783Z"/>
    <path class="cls-2" d="M185.915522516976125,115.778536646219436c5.482918402276482-15.434548893249485,9.745823949648184-29.053685895794843,3.571124006824903-45.290382072073953,1.163685701483701.189917991629954,1.742550133538316.288742361698496,2.894059358621234.49342104594416,8.154997968096723,11.429090411214929,15.267286593771132,24.827835380920988,15.132907350614914,39.223835957855044.013665685744854-.001795811267584.019885324769348-.002628016489325.033551010514202-.004434777825736,2.305734067203957-5.784548994842226,3.859067013509048-12.392466505866651,3.498152748972643-18.900891692631376-.401736120673377-7.244335504194169-1.589336772209208-10.772535241694641-4.607701310775155-17.331998698696225.732866198330157.181048435978482,1.096758881554706.272634810632553,1.819989019422792.457855222787657,6.409732217522105,11.036048645095434,6.357259488284399,28.285483825751726-.447726409234747,39.116459584128279-1.199163924089589.218191069027853-1.800278895752854.319610605379239-3.00303444237943.508302189315145.965445657637247-14.60061356076767-4.650975982298405-28.136321989843964-12.508657684900754-40.1348378738885-.015330096188336-.002441865321089-.023038944556902-.003668273016046-.038369040745238-.006099188269218,1.670805283378286,5.396150057854356,3.005750059417551,11.644598713410232,2.369069264597783,19.963234508244568-.652098491556899,8.519405304551583-2.341124689261051,13.645888020392704-6.503289604541351,21.81451882402871-.885904358559856.041588360943933-1.327849131517723.059655974308043-2.210074266991796.091016971081444Z"/>
    <path class="cls-2" d="M231.517039841250153,108.049485400701087c-.638608006911454.230006193161898-.957474007618657.341280791348254-1.590475579354461.555726936879182.070080439716548-.257611316368639,1.065047482583395-1.603539011319299,2.297587216089596-4.307658478172016-1.733614877473883,2.115750375161952-5.8520671184815,5.843745066265001-10.193900761085388,6.854534958411932-5.976197097326803,1.391293829598908-2.816883274383144-7.06623263669735-3.194529243901343-17.476561505747668-.396567688243522-10.931650690055903-2.520793416582819-17.309058304757855,3.017138130871899-15.095403365298807,4.081134406858837,1.631352185831929,9.510704074402383,5.649994550587508,12.382250091763126,10.480507859384488-.610225428827107-.098671069106786-.917528156980552-.14944653769453-1.534411227581586-.254282495481675-2.504149312149821-3.942845989176021-6.192920857149147-6.933725855291414-9.53943705468555-8.123089467889258-4.803838941428694-1.707279962237408-2.742422807184994,3.876685674055807-2.247129299492372,12.8392074089179.447726409234747,8.101857284668768-2.550752804561853,16.348474477626041,2.525699047364469,15.3668555685108,5.194800194494746-1.004504552709477,10.726074100175538-6.344031805287159,10.750251851877692-12.689224317857224.000350402198819-.130623369589557,0-.195863878937416-.002277614290506-.32646534838932-2.80321758863829.09096222073731-4.228478531362271.086374141949818-6.841252525071468-.067912326112491.022600941807468-.954813140923761.014541691240083-1.37527387908176-.050983519893634-2.282640372303831,3.200398480728836.334809300742563,4.962571137386476.405710995611116,8.328184254743974.426976029038087.860412598613038,5.451655956122522-.306251521556987,8.668950392863735-4.106713767354449,14.0994289161099Z"/>
  </g>
  <path class="cls-1" d="M163.127641135635713,142.531700707511845c-12.418253917667244.000700804397638-25.381733656326105-1.745703753324051-38.661976982501074-5.247623325931272-16.918819756227094-4.459919183523198-28.634867667940853-10.791686911860779-38.050875548178738-15.879526835238721-12.437876440788386-6.721414973158062-21.422188812373861-11.577288641076848-34.890247716986778-8.407550352723774-8.988517197969486,2.117130083818665-16.795478182328225,7.052895453013662-22.495821148824689,10.656431663208423-6.360500708618929,4.021215630901679-10.563925482783816,6.677965100534493-13.536737735534189,3.853022575583964-2.400955864668504-2.283220725946194-.986732591200052-5.565788522241746.805925056733031-9.722259401795782,1.837509129352838-4.262993147921406,4.354798523949285-10.101394580658052,4.989727307776775-18.046414031256973.643338436591876-8.065557806909965-.989535808788787-14.316032225176059-2.182304892754473-18.879670459479712-1.202580345525348-4.600080062955385-2.152871108075487-8.234451666625318.658756133329007-10.421662190160532,3.639978038847403-2.834052982113462,8.464315508894288.424687464678755,15.138776587442408,4.931560542812804,5.341531115151156,3.607741036576954,11.990763235400664,8.097794809178595,19.551041071958025,10.51907400136497,16.000765995948314,5.12568336082586,28.629261232765202-1.339237202972072,44.618814358358577-9.526734974987448,9.94721761328401-5.093446358556321,21.223160363580973-10.866672982357159,34.94771367755493-14.409239209998304,37.43556928747239-9.665494245625268,80.354232178320672.719025311484984,101.730167900483139,15.395270996801628,8.535797557404294,5.860126369048885,13.419002596810969,12.176476400648426,14.122610211559731,18.265065003171003h0c1.893573481125713,16.410736568286666-26.800161756176749,31.37010723005551-39.225423717816739,37.040315607473531-14.404333579219383,6.57845087613714-30.445746230201621,9.879940391156197-47.520144562598944,9.879940391156197ZM59.70713302920376,107.691910907119563c10.390125992287722,0,18.747919232813729,4.516684339693711,28.755406024252807,9.924791872574133,9.693526421511706,5.237812064370701,20.679336151386451,11.175026917107061,37.101986394423875,15.503895678361914,30.564882977720117,8.059250567335766,59.328698654739128,6.560229961811274,83.185481942846309-4.335176000829051,18.71007579536672-8.538600774993029,38.127964031864394-21.567956126984427,36.845491985062836-32.680611452744415h0c-.548029038578534-4.745847377564132-4.909835606500565-10.147647670870356-12.282297864619977-15.208857027157137-20.591034797342218-14.138728712695411-62.015582713447657-24.125191372219888-98.21633465312334-14.775759909713088-13.26342402064256,3.423429480124469-24.312306146261108,9.081023378394093-34.061896919545688,14.072853099361964-16.20540087991867,8.297524062369121-30.199063082402063,15.461146610135074-47.89577571947666,9.795143059099246-8.146150312582904-2.609795575021963-15.077105800492063-7.290468143651196-20.647099149115093-11.051685343206373-3.966552887924991-2.679175210341782-8.901617452722348-6.019909771601306-10.084575275128373-5.101856011322525-.571856388081869.445010792196626.2242574070915,3.489305093457915.863391017301183,5.935112439545264,1.269857567653162,4.860779298698617,3.010655690197382,11.518421071715238,2.308449684243897,20.310713038479662-.690993135598546,8.654233500524242-3.48159624508844,15.126162108293101-5.327515027207482,19.408777779334741-.794712186378092,1.842414760132669-1.773035124813759,4.112320202532828-1.733790078573293,4.905630780117463,1.168941734462351.097411811205347,5.202771844513336-2.480847565944714,8.210624317121983-4.381429091041355,5.956837375857504-3.766122830335917,14.117003776384081-8.924743997828045,23.80912858910051-11.207263919376601,3.262945273176229-.76878242368457,6.294625095288211-1.114278991483843,9.169324732436507-1.114278991483843Z"/>
  <g>
    <path class="cls-1" d="M100.662054398660985,139.581423696156889c.593756525493518-1.36319595329951,1.315585054568146-2.998216412147485,1.934658138909072-4.170946870382068-.015154895087107-.007818349055924-.030747792925467-.015702398523899-.045902688014394-.023520747579823-.91892976577401.931281443276021-1.956120273571287,1.887178641000901-3.170964696048031,2.907725044365179-1.421056116339969,1.196908209935827-2.864187571190996,2.375880207332557-4.328956361803648,3.536346588616652-.354081421664887-.19372861553984-.707637240031545-.389121641522252-1.060404653451769-.586200978086708.24055110932386-1.800738798639031.504228763755236-3.594097250969753.790945362743514-5.379484053283704.25850922200334-1.584234040191404.548817443526787-3.006998367250162.910870515208444-4.26029943102094-.009986462659072-.005934937237726-.020323327516962-.011935574888412-.030309790176034-.017870512127047-.703870416398786,1.123980752357056-1.688500594407742,2.614766906214754-2.595691886530403,3.930899464217873-.869435455226267,1.252928761434305-1.741761728590063,2.503820810089564-2.617416822840823,3.752719946240177-.438440750973314-.262100844537599-.875917895900784-.526829705565433-1.312256233681182-.794208483218426,2.100836381585395-2.873122827255429,4.183101446644287-5.758860133659255,6.246269591882083-8.656883417151221.539969788011149.326158746465808,1.081516385916984.647959365586757,1.624902595363892.965445657637247-.302221896274204,1.81094426267282-.579390035351025,3.630539079622395-.831767218878667,5.458215047277918-.213219737834152,1.384241985351764-.419431431699195,2.605393647402707-.682846284482366,3.722870058948502.01611850113477.008825755376165.03188660007072.017629610615586.047917500656695.026433465855007.787003338009526-.791821368240562,1.725730828005908-1.610404704398206,2.828096144738083-2.539977936955438,1.434721802084823-1.176037378982983,2.847017863459769-2.370427073117753,4.23715098577668-3.582490178142507.55538748474828.288096307644992,1.112351779391247.571878288219523,1.670980484477695.851258341174798-1.375241028876189,3.278691471973616-2.732348743977127,6.565595495477282-4.071848748597404,9.860536869409771-.464370513667745-.229119237596024-.927952622389057-.460997892506384-1.390483524513911-.695657864867826.612503043117613-1.436451912940356,1.228159706020961-2.871436516674294,1.847057589262477-4.304910010927415Z"/>
    <path class="cls-1" d="M105.429101109240946,143.355386775686384c-.839300866147823.843724693904733-1.687274186711875,1.681317349335586-2.54400756223913,2.512690365741037-.495381108243237-.231265451063337-.989973811538221-.465684521912408-1.483252506588542-.70312581172584,2.793318726528014-2.592603967153991,5.496671688571951-5.251937653000823,8.107781271839485-7.973380128545614.536991369323005.238645797369827,1.075033945242467.473415270418627,1.614390529406592.704264618870184-.214183343881814,3.767239737344426-.323684030938239,7.558022122404509-.327275653473407,11.367770026463404-.522887680830536-.205204287542983-1.044636554515819-.413781196247328-1.565334221606463-.625643125564238.017432509379432-1.19745571337171.04511428306796-2.392940414375516.082957720514969-3.586300802051483-1.301744167725701-.544087013845456-2.597005894775066-1.109504761528115-3.885259577853503-1.696275143187449ZM109.436388252748657,143.938565534809641c.039770649538696-1.091240046926941.088476555141824-2.180684282586299.145592113511157-3.268157505878662.038193839644009-.740553146561069.13402884095558-1.387176603765511.223994605441476-2.020397176873303-.010161663758481-.004423827757819-.020148126419372-.008803855239421-.030222189627239-.01322768299633-.409094566843123.511214907590329-.840614874394305,1.028977956266317-1.306299396306713,1.531104306831367-.76116117586389.785755030177825-1.52994359954937,1.566363528064358-2.306347271050981,2.341628392421626,1.085984013947382.491658084882147,2.177136460324618.968029873852174,3.2732821380323,1.429049666495303Z"/>
    <path class="cls-1" d="M112.466841667166591,149.906812882258237c1.253213463220163-3.318878224124092,2.506251725342736-6.637756448247274,3.759377588012285-9.956612772232802.494417502197393.186720571568003.989711009890016.370243723074054,1.485705321978458.550569454518154.515441634111994,2.097332359599022,1.083268396909261,4.195496924420695,1.70348028839544,6.292456981684154.43003109820711,1.456840940870279.742239457142205,2.732129742601501.958525214215115,3.943185441305104.012789680249625-.001927212091687.025404159398022-.003766823634578.038106239097033-.005672135589521.290045419873422-1.397228766836633.648156466822911-2.642120177841207,1.146866395951292-4.223660501131235.446675202638289-1.415624882261909.893087603630192-2.831205964249421,1.339412404071481-4.246830846512239.432834315795844.136481656346405.866457036538122.270598097853508,1.300167357829196.402371224656235-1.03088326822035,3.394521298741893-2.061766536442519,6.789042597483785-3.092387003016484,10.183541996088934-.50501716870167-.153257161604415-1.008895530259906-.309536542170463-1.512511090168118-.468772441287911-.682233080635342-2.103749099860579-1.312081032583592-4.209885314699932-1.89006945913934-6.316328131461887-.381062390955776-1.385884495658502-.694497157586738-2.790296507566381-.837548855157365-4.071038443512407-.017782911576433-.00059130371028-.035828624804708-.001160707282907-.05361153638114-.001752010993187-.382376399200439,1.288275583216091-.78726613965955,2.502638202669004-1.395213954196151,4.164157827784948-.519996862691187,1.423618432417243-1.040168926483602,2.847258764972139-1.560340990276018,4.270855297252638-.464107712017721-.169594664112992-.927339418540214-.341773544440002-1.389957921215682-.516470940568979Z"/>
    <path class="cls-1" d="M123.727016318527603,153.613652040621673c.963430844996765-3.414297122824792,1.926686488892301-6.82857234551102,2.890029733336632-10.242847568198158.505893174200537.142679395234154,1.012224351148689.282139470268703,1.51925633249266.41840212524221.68599990426992,2.04299811868168,1.424122135578727,4.082733116889358,2.214279093375808,6.116927380332527.549343046823196,1.413434868521108.967022467530114,2.656618068807802,1.281596041306329,3.843736917320712.013052481896011-.002868918000786.026017363243227-.005715935863918.038807043492852-.008606754002358.170996272905541-1.416676088858367.418905828400966-2.688110466404396.780520897335009-4.306421120408231.323771631488853-1.448606489203485.647192860777068-2.897256778682276.970964492265921-4.345885168023415.441331569110844.098484917938549.882838339321097.194582720899234,1.32452031063076.288337209156452-.736720622513531,3.470230073772655-1.47326604392947,6.940438247407656-2.209899065892387,10.410690221317054-.514040025316717-.109040784170247-1.027554447335206-.221038086890985-1.54063086660608-.336013808299867-.852528549145063-2.035902474161048-1.653372773998854-4.078396889683063-2.402269872913166-6.125402733511692-.494943105493803-1.347405954225906-.924360999853889-2.718135554795481-1.172620957548133-3.980875577790357-.017870512127047.000985506183497-.035565823154684.001992912504647-.05326113418414.002978418688144-.268933687410026,1.316855262537501-.57133078478364,2.560870668045936-1.03324848306147,4.268292981175364-.396042084945293,1.463016779620375-.791996569339972,2.92603355924075-1.18795105373465,4.389050338861125-.473656171930998-.128181504267559-.947224743311381-.258969124887699-1.420092510295945-.39236286185951Z"/>
    <path class="cls-1" d="M138.616744543329332,146.135631120179823c-.628621544252383,3.491385606512267-1.257418289604175,6.982749312886881-1.886039833854738,10.474134919398239-.51009800058273-.091783475890225-1.019933199517254-.186479670056542-1.529505596801755-.284066682361299.667954191043464-3.484070960616009,1.336171183735132-6.968163821369671,2.004125374776777-10.45223478198659.470239750495239.090075265172345.940654702088068.177456813443314,1.411420055879717.26216654494965Z"/>
    <path class="cls-1" d="M147.779061231794913,157.789767343432686c-.58981450075953.195743428182141-1.75385060444205.334327497720551-3.209070935143245.158272293071605-3.388914863564423-.410014372613659-5.606960780574809-2.718814459055466-5.01609507322064-6.155186920390406.566600355103219-3.288437033122136,3.254886022608844-5.105579034681796,6.645552897165544-4.70279170741469,1.370685800295178.161601113957659,2.209198261496567.527946612573032,2.568185313941285.7537808295574-.150935747038602.360804763849956-.303010301222457.72136862618936-.455873260352746,1.08166968687874-.522800080279922-.30585731908559-1.277216013822908-.576499217213495-2.198248192789833-.685452400834038-2.590786255750572-.307127527055854-4.554790578789834.989886210987606-4.989902508876185,3.753880653522174-.405853346504955,2.569477422048294,1.003989899480075,4.499273730451932,3.901991282835297,4.846916511717609.93198224767184.11077089502669,1.902421136639532.039201245966069,2.542868755093878-.166265843226029.06937963531891.371798632831087.139635276133049.743531565249214.210591721346645,1.115176897117635Z"/>
    <path class="cls-1" d="M150.565722316550819,147.705367269405542c.47532058237266.039661148851337.95099156694414.076672381076605,1.426925353165643.111011796537241-.123166372801279,1.705998804198316-.246683147799558,3.411975708258979-.369849520600837,5.117974512457295.017082107180613.001270207969355.034251814910021.002496615664313.051509123191863.003701123222527.336210909536021-.38752293149264.66751618829403-.744319970196557.978410538984463-1.072493529303756,1.248921036287356-1.253279163633124,2.463415056565282-2.524363138981244,3.642518454786114-3.811828417112338.591303710103602.022600941808378,1.182607420207205.041084657783358,1.773911130310807.055429247787288-1.373051015136298,1.47243383870682-2.793231125979219,2.922704738354696-4.259576726486557,4.348535084650393,1.376204634922033,2.122167115423508,2.823015312858843,4.222828295909494,4.339380827212153,6.298523319746892-.61136423597236-.013359083821342-1.222640871394105-.030747792925467-1.833829906267056-.052188027450939-1.256542284107127-1.787423515092996-2.462451450519438-3.591951037504259-3.617815099787549-5.411436353767385-.390085247569004.365513293393633-.783061313275539.729362176343784-1.179190998769627,1.091459048300749-.097411811206257,1.349048464532643-.194998823510105,2.698096929065287-.292498235265157,4.047123493459367-.515441634110175-.037186433323768-1.030883268222169-.077307485061283-1.546149701232935-.120297454799584.295301452852073-3.535185881333746.590690506256578-7.070349862530747.886254760758675-10.605513843727749Z"/>
    <path class="cls-1" d="M162.865803092747228,157.104840545896877c.689416325705679.370156122524349,1.705057098288307.667822790217542,2.767038561634763.632848270772229,1.577685899104836-.052538429649758,2.457721020839017-.847644818501976,2.400780663569094-1.918276836125187-.050457916595406-.995558346577127-.706761234534497-1.523351658188403-2.288564359474549-2.020616178248019-1.91161919435217-.551073157678729-3.077932912325196-1.446613576698837-3.09177379916764-2.944429674666026-.012702079699011-1.66031511755773,1.402572400364079-2.89727867881993,3.545019043031061-2.981397106615987,1.131361098665366-.045092382930306,1.963215918092828.160418506537098,2.473839521973787.400115510503383-.109675888155834.380865289718713-.220227781806898.76157727847567-.332006083153829,1.142179766545269-.375718757428331-.169923166173248-1.138018740437474-.444244287386937-2.146651469050994-.404495537984985-1.520833142385527.057728762215447-2.082527866708915.932113648496852-2.066934968872374,1.659899014946859.023038944556902.993193131736916.722967336219881,1.473988748463853,2.329561416709112,1.980933129259029,1.968121548872659.613116246964637,3.021956161101116,1.407434230870422,3.121207583850264,2.969439631589012.10941308650581,1.633969252253337-1.170080541609423,3.160058427617514-4.013419181985228,3.256178130715853-1.160707282795556.038106239095214-2.433543269136862-.24138331454742-3.074341289788208-.616007065103986.126495193686424-.385267217337969.251939180778209-.770753436050654.376244360724741-1.156371055587442Z"/>
    <path class="cls-1" d="M173.503050235583942,154.875121855646285c-.302397097373614,1.148224204471262-.61425505410989,2.295528603171078-.93688787845349,3.441781795275347-.533136945139631.044172577157951-1.066449091376853.085301035216617-1.599936438715304.123319673762126,1.105080933772115-3.635181908754021,2.104077601921745-7.283000196794092,2.997077605003142-10.938790134851843.573170396326532-.057947763590164,1.146077991004859-.119749951364611,1.718635183484366-.185472263735392,1.659066809725118,3.38039571011177,3.421414667482168,6.729977926885113,5.2858171655771,10.04416952160318-.54741583473151.079409898252379-1.095269672212453.155534775894012-1.643473911890396.228308932511936-.572294390829484-1.049498385021252-1.134164316252281-2.102413191479172-1.686135379564803-3.158459717586084-1.376555037120852.169726064937095-2.75503728633521.318121396035167-4.135096345440616.445142193020729ZM177.199180226753015,153.401987212541826c-.500199138472453-.968248875225981-.992163825278112-1.939213367490083-1.475193256021157-2.912652575282664-.328940063916889-.662632457651853-.564760743560328-1.271543878233388-.794887387477502-1.86692101389508-.011212870354939.001204507557304-.022425740709878.002387114977864-.033726211613612.003613522672822-.096360604609799.646229254730315-.211642927943103,1.309628217191857-.364067884323958,1.976180799440044-.263502453331967,1.059046844932709-.535940162728366,2.11739288546778-.81713792708797,3.174950521056417,1.162897296535448-.10976348870463,2.324480584828052-.234813273323198,3.485012666524199-.375171253991539Z"/>
    <path class="cls-1" d="M182.713985229102036,157.095423486809523c-.55486188145187-3.503868684835652-1.109373360704922-7.007759269809867-1.664235242154973-10.511649854783172.516054837957199-.08159991199409,1.031671673168603-.166397244050131,1.546850505630573-.254413896306687,1.473003242279447,1.569407647164553,2.993223180817949,3.113936738229313,4.56013421231728,4.631331559041428,1.088261628239707,1.054601117038146,1.987744071993802,2.008833904321364,2.770630184169931,2.955489244059208.01068726705671-.008059250567385.021024131914601-.016030900585065.031711398971311-.02409015115245-.439842359766772-1.357808519496757-.743816267035072-2.616891219543504-1.093605261767152-4.237807989899011-.312383560034505-1.451081204731054-.62476712006719-2.902184309599761-.937063079551081-4.353287414468468.441594370759049-.094980895952176.882750738772302-.192392707157524,1.323644305133712-.292169733203082.783411715476177,3.459958909326815,1.56691103149933,6.91991781865363,2.350497948073098,10.379898628117189-.512901218169645.116070728279738-1.026240439090543.229163037871331-1.540105263306032.339298828912433-1.62595380196035-1.492625765400589-3.20591731535751-3.013283706686707-4.739014534694434-4.559849510531421-1.011523546749231-1.017064281515559-1.970574364262575-2.083119170419195-2.723063085712056-3.1263760162783-.015592897836541.00832205221559-.031185795673082.016644104432089-.046866294060237.024966156648588.305813518809373,1.308664611146014.552146264411931,2.564812692779924.848060921112847,4.308873935798147.252990387374666,1.49439967653052.505980774749332,2.988777452924296.758708360473975,4.483155229317163-.481803023047178.081446611032334-.963956448293175.160330905987394-1.446285074636762.236630984728436Z"/>
    <path class="cls-1" d="M191.73070980405646,144.56758128153524c.823445166663078-.333232490848786,1.808776149067853-.683196686680276,2.910353060853595-.984082674573983,1.995190118714163-.545773324424772,3.53503258037199-.539597485674676,4.740416143487892-.003920124596334,1.218611246109504.530027125626475,2.166974796566137,1.512861492368756,2.701162948300407,3.149677762484316.537779774271257,1.650350555036312.414788602569388,3.18896660900009-.367747107407922,4.459218379126469-.774126057212925,1.283085250649492-2.417862770751526,2.344103107949195-4.693024246129426,2.956518550517103-1.077048757884768.289695017675513-1.991773697276585.473261969456871-2.777901029790883.58532497259057-.83781165680557-3.387600855319761-1.675448112509912-6.775157910365124-2.513259769313663-10.16273686554814ZM195.491138598665202,153.324373125556122c.395691682746474-.037295934011127.950027960900115-.167119948584514,1.534936830877996-.326136846328154,3.21406416647369-.878764913763007,4.440121459303555-3.013371307236412,3.572438015071384-5.745873352173476-.743728666486277-2.404240885281069-2.654647056440808-3.449446843369515-5.606172375628375-2.635812938267009-.725069749410977.198349544532903-1.258381895650018.402853027679157-1.610273303573194.575382310204986.702994410899919,2.710799008763388,1.406076422350452,5.421641817801174,2.10907083325219,8.132440826563652Z"/>
    <path class="cls-1" d="M208.257867502819863,150.497437688101854c-2.457721020837198-2.88116017768516-4.824337470045066-5.815778590791524-7.098097336629507-8.799694213209477.494680303843779-.163922528523472.988747403842353-.330976776695934,1.482026098892675-.501140844381553,1.120849032706246,1.461790371925417,2.263335401175937,2.911798469923269,3.427371504858456,4.349608191383595.961503632903259,1.180724008389006,1.823668242508575,2.243274875308089,2.558549253481033,3.301139112820238.011388071452529-.004204826383102.022951344006287-.008409652766204.034164214361226-.012702079699011-.110201491454063-1.273317789364228-.11755993762381-2.702827358744798-.128510006330544-4.188028977562681-.009285658261433-1.873140652920483-.044501079219117-3.741660376847904-.105646262871232-5.605033568483123.480839417001334-.192589808393677.960890429056235-.388158035476408,1.440065435614088-.586879882345784.115983127729123,3.79235919495386.121939965105412,7.607319331717008.016556503882384,11.439624377309883-.541283796255811.204569183558306-1.083355997459876.405612444993494-1.626479405258578.603107884167912Z"/>
    <path class="cls-1" d="M214.699661521512098,144.329198285814527c.064561605087874,1.188323356071123.118873945868472,2.378990026844804.16319982398818,3.571693410398439-.501600747265911.212321832202178-1.004077500030689.421511944754457-1.507868261038311.627592237793579-.062021189149164-3.807798791828645-.229163037871331-7.595164755453879-.500286739023068-11.357520762154309.536903768774209-.238908599019851,1.072493529303756-.481649722085422,1.606681681038026-.728354770023543,2.656837070182519,2.680730120097905,5.404866312544982,5.29762133964141,8.242686118292113,7.84587752853804-.506681579145152.252968487237013-1.01458956598799.502586253450318-1.523636359974262.748984699464017-.880560725030591-.813327303178085-1.752186193998568-1.633268447854789-2.614964007450908-2.459670133068357-1.281596041306329.605144596947866-2.570375327682996,1.18895846005671-3.86581225583177,1.751397789052135ZM217.820956705911158,141.74163135026447c-.785338927567864-.759584365971932-1.563231808413548-1.524643766295412-2.333591041991895-2.294959199598452-.524902493472837-.524311189762557-.941355506483887-1.027751548572269-1.349311266181758-1.51984763620294-.010599666506096.004796130093382-.021111732463396.009570360049111-.031536197871901.014322689867186.107836276612943.645418949647137.200868060335779,1.31306653876527.261049637942051,1.995912823247636.073847263351126,1.091524748713709.139022072286025,2.185086210206464.195349225708924,3.280640584203866,1.090889644727213-.476765991442335,2.177136460324618-.968730678248903,3.258039642394579-1.476069261517296Z"/>
    <path class="cls-1" d="M219.506128479431936,134.13595452885329c.740049443400494-.523829386739635,1.637079071764674-1.102912820168058,2.663319510855217-1.664498043804088,1.8558176442275-1.016889080416149,3.385148039929845-1.387176603765511,4.703361110987316-1.159656076200008,1.331177952404687.218431970540223,2.495564458284207.94468432737176,3.39627330973417,2.411993533924033.90771689542089,1.479091480480747,1.133025509107028,3.012933304488797.644564844287743,4.444216785000208-.479525408756672,1.442846753064259-1.872023745912884,2.881554380158377-3.990029835229507,4.030632689989034-1.001712285189569.542794905736628-1.868607324475306.943917822561161-2.620833244276582,1.242438595613748-1.59897283266946-3.10169456141557-3.197682863690716-6.203411022969703-4.796655696358357-9.305127484522927ZM225.221275938816689,141.767977215569772c.382201198101029-.13137892432951.903774870686902-.392778964470381,1.448037085630858-.689876228590947,2.986215136847022-1.636378267367945,3.724512569255239-4.023975048216016,2.243362475857793-6.478695750229235-1.282822449000378-2.16539798667327-3.417209841099975-2.716186442566141-6.160683854879608-1.205317862702032-.673998628968548.369280117028211-1.156502456413364.698176380669793-1.466257999956724.95140766955592,1.311905831482363,2.474168024034952,2.623636461865317,4.948314147932251,3.93554229334768,7.422482171966294Z"/>
  </g>
</svg>